<svg xmlns="http://www.w3.org/2000/svg" xmlns:xlink="http://www.w3.org/1999/xlink" id="Layer_1" x="0px" y="0px" viewBox="0 0 900 600" style="enable-background:new 0 0 900 600;" xml:space="preserve"><style type="text/css">	.st0{clip-path:url(#SVGID_2_);}	.st1{fill:none;}	.st2{fill:#1940EA;}	.st3{fill:#071562;}	.st4{fill:#184AD5;fill-opacity:0.4024;}	.st5{fill:#3161E8;fill-opacity:0.4024;}	.st6{fill:#3D6AE9;fill-opacity:0.4024;}	.st7{fill:none;stroke:#FFFFFF;stroke-width:0.2785;stroke-linecap:round;stroke-linejoin:round;stroke-miterlimit:1.5;}	.st8{fill:url(#SVGID_3_);}	.st9{fill:url(#SVGID_4_);}	.st10{fill:url(#SVGID_5_);}	.st11{fill:url(#SVGID_6_);}	.st12{fill:url(#SVGID_7_);}	.st13{fill:url(#SVGID_8_);}	.st14{fill:url(#SVGID_9_);}	.st15{fill:url(#SVGID_10_);}	.st16{fill:url(#SVGID_11_);}	.st17{fill:#F6AECE;}	.st18{fill:url(#SVGID_12_);}	.st19{fill:url(#SVGID_13_);}	.st20{fill:url(#SVGID_14_);}	.st21{fill:#F9DDB8;}	.st22{fill:url(#SVGID_15_);}	.st23{fill:url(#SVGID_16_);}	.st24{fill:url(#SVGID_17_);}	.st25{fill:url(#SVGID_18_);}	.st26{fill:url(#SVGID_19_);}	.st27{fill:url(#SVGID_20_);}	.st28{fill:url(#SVGID_21_);}	.st29{fill:url(#SVGID_22_);}	.st30{fill:url(#SVGID_23_);}	.st31{fill:url(#SVGID_24_);}	.st32{fill:url(#SVGID_25_);}	.st33{fill:url(#SVGID_26_);}	.st34{fill:url(#SVGID_27_);}	.st35{fill:#FDD0C8;}	.st36{fill:url(#SVGID_28_);}	.st37{fill:url(#SVGID_29_);}	.st38{fill:#FBDDD7;}	.st39{fill:url(#SVGID_30_);}	.st40{fill:url(#SVGID_31_);}	.st41{fill:url(#SVGID_32_);}	.st42{fill:url(#SVGID_33_);}	.st43{fill:url(#SVGID_34_);}	.st44{fill:url(#SVGID_35_);}	.st45{fill:url(#SVGID_36_);}	.st46{fill:url(#SVGID_37_);}	.st47{fill:url(#SVGID_38_);}	.st48{fill:url(#SVGID_39_);}	.st49{fill:url(#SVGID_40_);}	.st50{fill:url(#SVGID_41_);}	.st51{fill:url(#SVGID_42_);}	.st52{fill:url(#SVGID_43_);}	.st53{fill:url(#SVGID_44_);}	.st54{fill:url(#SVGID_45_);}	.st55{fill:url(#SVGID_46_);}	.st56{fill:url(#SVGID_47_);}	.st57{fill:url(#SVGID_48_);}	.st58{fill:url(#SVGID_49_);}	.st59{fill:url(#SVGID_50_);}	.st60{fill:url(#SVGID_51_);}	.st61{fill:url(#SVGID_52_);}	.st62{fill:url(#SVGID_53_);}	.st63{fill:url(#SVGID_54_);}	.st64{fill:url(#SVGID_55_);}	.st65{fill:url(#SVGID_56_);}	.st66{fill:url(#SVGID_57_);}	.st67{fill:url(#SVGID_58_);}	.st68{fill:url(#SVGID_59_);}	.st69{fill:url(#SVGID_60_);}	.st70{fill:url(#SVGID_61_);}	.st71{fill:url(#SVGID_62_);}	.st72{fill:url(#SVGID_63_);}	.st73{fill:#FFFFFF;}</style><g>	<defs>		<rect id="SVGID_1_" width="900" height="600"></rect>	</defs>	<clipPath id="SVGID_2_">		<use xlink:href="#SVGID_1_" style="overflow:visible;"></use>	</clipPath>	<g class="st0">		<rect id="Artboard1" x="-43.2" y="-25.1" class="st1" width="944.5" height="629.7"></rect>		<rect x="-43.2" y="-25.1" class="st2" width="944.5" height="629.7"></rect>		<g transform="matrix(1,0,0,1,2207.55,1348.79)">			<g id="White-BG">				<path class="st3" d="M-1359.6-1288.6v459.2c0,3.3-2.7,6-6,6h-825.6c-3.3,0-6-2.7-6-6v-459.2c0-3.3,2.7-6,6-6h825.6     C-1362.3-1294.6-1359.6-1291.9-1359.6-1288.6"></path>			</g>		</g>		<g id="Layer1">			<g transform="matrix(0.544806,-0.325634,0,0.544806,408.016,635.965)">				<polygon class="st4" points="-192.5,-939.7 143.1,-939.7 143.1,-734.4 -192.5,-734.4     "></polygon>			</g>			<g transform="matrix(0.487924,-0.291635,0,0.435831,511.126,671.762)">				<polygon class="st5" points="-379.9,-1337.1 -44.3,-1337.1 -44.3,-1131.9 -379.9,-1131.9     "></polygon>			</g>			<g transform="matrix(0.42068,-0.251443,0,0.329235,637.687,704.691)">				<polygon class="st6" points="-673.3,-2004.6 -337.7,-2004.6 -337.7,-1799.3 -673.3,-1799.3     "></polygon>			</g>			<g transform="matrix(1,0,0,1,42.4,0)">				<path class="st7" d="M312.1,214.9l231.3,74.9l-90.1-160.1"></path>			</g>			<g transform="matrix(1,0,0,1,42.4,0)">				<path class="st7" d="M312.1,282.9l231.3,6.9l-90.1-92.1"></path>			</g>			<g transform="matrix(0.896089,0.443875,-0.443875,0.896089,1555.97,-951.386)">									<linearGradient id="SVGID_3_" gradientUnits="userSpaceOnUse" x1="-1057.9868" y1="2522.4514" x2="-1057.5831" y2="2522.4514" gradientTransform="matrix(331.8105 -128.3277 -128.3277 -331.8105 674506 702633.625)">					<stop offset="0" style="stop-color:#79F1A4"></stop>					<stop offset="1" style="stop-color:#0E5CAD"></stop>				</linearGradient>				<path class="st8" d="M-72.3,1442.2c0,0-48.8-18.7-96.7,2.3c-47.9,21-86.2,17.8-87.1-11.4C-257,1403.9-152.1,1381.1-72.3,1442.2z     "></path>			</g>			<g transform="matrix(0.896089,0.443875,-0.443875,0.896089,1555.97,-951.386)">									<linearGradient id="SVGID_4_" gradientUnits="userSpaceOnUse" x1="-1057.6993" y1="2523.1455" x2="-1057.2957" y2="2523.1455" gradientTransform="matrix(276.8894 -218.75 -218.75 -276.8894 844550.4375 468720.0938)">					<stop offset="0" style="stop-color:#1E5C7E"></stop>					<stop offset="1" style="stop-color:#1E5C7E;stop-opacity:0"></stop>				</linearGradient>				<path class="st9" d="M-243.2,1454c18.1-23.9,94.1-45.4,166.2-13.3c-13.3-4-53-13.3-92,3.8C-200.6,1458.3-228,1461.7-243.2,1454z     "></path>			</g>			<g transform="matrix(0.896089,0.443875,-0.443875,0.896089,1555.97,-951.386)">									<linearGradient id="SVGID_5_" gradientUnits="userSpaceOnUse" x1="-1055.4525" y1="2520.4741" x2="-1055.0488" y2="2520.4741" gradientTransform="matrix(305.8064 200.882 637.1103 -96.4213 -1283268.375 456367.0625)">					<stop offset="0" style="stop-color:#F6D242"></stop>					<stop offset="1" style="stop-color:#FF52E5"></stop>				</linearGradient>				<path class="st10" d="M-85.5,1417c0,0-92.2-36.3-165.6-38.6c-73.4-2.3-106.3-32.5-87.6-55.5c11.8-14.4,67.8,5.5,133.5,35.4     C-166.3,1376.1-123.9,1397.3-85.5,1417z"></path>			</g>			<g transform="matrix(0.896089,0.443875,-0.443875,0.896089,1555.97,-951.386)">									<linearGradient id="SVGID_6_" gradientUnits="userSpaceOnUse" x1="-1054.5361" y1="2518.3191" x2="-1054.1326" y2="2518.3191" gradientTransform="matrix(31.2481 117.7354 158.2743 -23.2445 -365831.6563 184050.5938)">					<stop offset="0" style="stop-color:#CA16EB"></stop>					<stop offset="1" style="stop-color:#CA16EB;stop-opacity:0"></stop>				</linearGradient>				<path class="st11" d="M-333.2,1355.5c0.4-0.9,1-1.7,1.5-2.6c15.6-23.3,138.5,21.4,242.9,62.5c1.1,0.6,2.2,1.1,3.3,1.7     c0,0-92.2-36.3-165.6-38.6C-291.1,1377.1-319.1,1367.6-333.2,1355.5z"></path>			</g>			<g transform="matrix(0.896089,0.443875,-0.443875,0.896089,1555.97,-951.386)">									<linearGradient id="SVGID_7_" gradientUnits="userSpaceOnUse" x1="-1057.0066" y1="2519.7937" x2="-1056.6029" y2="2519.7937" gradientTransform="matrix(228.0451 193.4591 193.4591 -228.0451 -246631.5625 780367.9375)">					<stop offset="0" style="stop-color:#5EFCE8"></stop>					<stop offset="1" style="stop-color:#736EFE"></stop>				</linearGradient>				<path class="st12" d="M-133,1385.2c0,0-62.2-40.6-76.4-87.2c-14.1-46.5,38.7-53.4,51.9-14.2     C-144.1,1323-154.1,1338.7-133,1385.2z"></path>			</g>			<g transform="matrix(0.896089,0.443875,-0.443875,0.896089,1555.97,-951.386)">									<linearGradient id="SVGID_8_" gradientUnits="userSpaceOnUse" x1="-1059.4889" y1="2520.158" x2="-1059.0853" y2="2520.158" gradientTransform="matrix(218.4508 -7.673 -13.1338 -127.6248 264355.8125 314823.75)">					<stop offset="0" style="stop-color:#2F27FE"></stop>					<stop offset="1" style="stop-color:#2F27FE;stop-opacity:0"></stop>				</linearGradient>				<path class="st13" d="M-163.1,1272.5c2.3,3.2,4.2,7,5.7,11.3c13.3,39.2,3.3,54.8,24.4,101.4c0,0-1.7-1.1-4.6-3.1     c-13.9-14.8-40.7-47-44.6-78C-184.8,1283.1-174.7,1273-163.1,1272.5z"></path>			</g>			<g transform="matrix(0.896089,0.443875,-0.443875,0.896089,1555.97,-951.386)">									<linearGradient id="SVGID_9_" gradientUnits="userSpaceOnUse" x1="-1057.1777" y1="2518.5251" x2="-1056.7742" y2="2518.5251" gradientTransform="matrix(148.5491 120.1565 120.1565 -148.5491 -145842.1719 502390.0625)">					<stop offset="0" style="stop-color:#79F1A4"></stop>					<stop offset="1" style="stop-color:#0E5CAD"></stop>				</linearGradient>				<path class="st14" d="M-226.4,1312.5c0,0-34.8-22.2-49.5-50.5c-14.7-28.2,26.6-39.8,35.7-1.3     C-231.1,1299.3-226.4,1312.5-226.4,1312.5z"></path>			</g>			<g transform="matrix(0.896089,0.443875,-0.443875,0.896089,1555.97,-951.386)">									<linearGradient id="SVGID_10_" gradientUnits="userSpaceOnUse" x1="-1046.3218" y1="2523.0186" x2="-1045.9181" y2="2523.0186" gradientTransform="matrix(-68.8538 27.2213 15.5201 120.7661 -111424.7813 -274926.6875)">					<stop offset="0" style="stop-color:#2076AB"></stop>					<stop offset="1" style="stop-color:#04446C"></stop>				</linearGradient>				<path class="st15" d="M-243.9,1250.4c1.5,3,2.8,6.4,3.8,10.4c9.1,38.5,13.8,51.7,13.8,51.7s-1.1-0.7-2.9-2     c-7.9-10.8-16.4-24.7-20.4-39C-252.6,1261-249.4,1253.7-243.9,1250.4z"></path>			</g>			<g transform="matrix(1,0,0,1,31.1992,47.3858)">									<linearGradient id="SVGID_11_" gradientUnits="userSpaceOnUse" x1="-542.1313" y1="792.117" x2="-541.7276" y2="792.117" gradientTransform="matrix(270.485 326.468 326.468 -270.485 -111438.4063 391430.5625)">					<stop offset="0" style="stop-color:#FFF3B0"></stop>					<stop offset="1" style="stop-color:#CA26FF"></stop>				</linearGradient>				<path class="st16" d="M480.7,278.2c0,0,14.2-13,23.1-21.1c4.5-4.1,10.4-6.4,16.5-6.3c1.7,0,3.4,0,5,0.1     c5.2,0.1,10.2-1.5,14.4-4.6c11.3-8.1,34.2-24.7,43.3-31.3c2.4-1.8,3.9-4.6,3.9-7.6c0,0,0,0,0,0c0-5.6,3-10.8,7.9-13.7     c6.8-3.9,15.5-9,15.5-9l99,5.6l73.1,63.2l-10.3,42.8l-23.9,8.9c0,0-42.9-9.3-61.2-13.3c-5.1-1.1-10.5,0.2-14.6,3.5     c-13.3,10.8-43.9,35.6-58.8,47.6c-5.2,4.2-7.5,11-6,17.5c4.8,20.2,14.8,62.3,14.8,62.3l-95.3-22c0,0-34.4,2.5-40.3-17.6     c-5.9-20.1-6.5-32.6-6.2-42.3"></path>			</g>			<g transform="matrix(1,0,0,1,30.8661,51.384)">				<path class="st17" d="M582.5,208.7c1.1-0.9,2.7-1,3.9-0.2c6.5,4.1,26.2,16.5,36.4,23c1.4,0.9,2.3,2.4,2.3,4     c0.1,1.6-0.7,3.2-2.1,4.2c-12.2,8.8-39.4,28.4-48.3,34.8c-1.7,1.2-4,1.2-5.7,0c-7.4-5.2-27.2-18.9-35.9-25c-1-0.7-1.5-1.8-1.4-3     s0.8-2.2,1.8-2.8C545.3,236,574.9,214.7,582.5,208.7z"></path>			</g>			<g transform="matrix(0.437638,0.261767,-0.318323,0.282229,1306.84,279.688)">									<ellipse transform="matrix(0.1639 -0.9865 0.9865 0.1639 -1548.2732 -56.0162)" class="st17" cx="-807.2" cy="885.4" rx="14.3" ry="20.6"></ellipse>			</g>			<g transform="matrix(0.437638,0.261767,-0.318323,0.282229,1204.89,353.988)">									<ellipse transform="matrix(0.1639 -0.9865 0.9865 0.1639 -1367.5398 -184.1681)" class="st17" cx="-792.4" cy="714.7" rx="14.3" ry="20.6"></ellipse>			</g>			<g transform="matrix(0.523143,-0.463824,0.733083,0.438482,543.592,1134.24)">									<ellipse transform="matrix(0.185 -0.9827 0.9827 0.185 1684.293 644.4194)" class="st17" cx="1230.7" cy="-693.3" rx="23.6" ry="34.3"></ellipse>			</g>			<g transform="matrix(0.740432,-0.535748,0.813405,0.603155,-143.9,1352.28)">									<ellipse transform="matrix(0.1614 -0.9869 0.9869 0.1614 1595.1047 1034.2457)" class="st17" cx="1406.1" cy="-421.4" rx="30.1" ry="41.7"></ellipse>			</g>			<g transform="matrix(1,0,0,1,31.1992,47.3858)">									<linearGradient id="SVGID_12_" gradientUnits="userSpaceOnUse" x1="-547.0293" y1="790.087" x2="-546.6257" y2="790.087" gradientTransform="matrix(62.2867 82.5891 82.5891 -62.2867 -30545.334 94678.4688)">					<stop offset="0" style="stop-color:#4901B9"></stop>					<stop offset="1" style="stop-color:#4901B9;stop-opacity:0"></stop>				</linearGradient>				<path class="st18" d="M617.4,401.6l-15.7,3c0,0-3.2-19.9-6-37.5c-2.6-16.3,4-32.7,17.1-42.7c15.4-11.7,35.7-27.2,49.4-37.6     c9.6-7.3,21.7-10.4,33.7-8.7c22.8,3.3,58.5,8.6,58.5,8.6s2.7,5.9,5.9,14.2l-12.2,4.6c0,0-42.9-9.3-61.2-13.3     c-5.1-1.1-10.5,0.2-14.6,3.5c-13.3,10.8-43.9,35.6-58.8,47.6c-5.2,4.2-7.5,11-6,17.5L617.4,401.6z"></path>			</g>			<g transform="matrix(1,0,0,1,31.1992,47.3858)">									<linearGradient id="SVGID_13_" gradientUnits="userSpaceOnUse" x1="-542.8147" y1="791.4955" x2="-542.4111" y2="791.4955" gradientTransform="matrix(152.065 213.423 213.423 -152.065 -85828.1484 236411.5313)">					<stop offset="0" style="stop-color:#4901B9"></stop>					<stop offset="1" style="stop-color:#4901B9;stop-opacity:0"></stop>				</linearGradient>				<path class="st19" d="M670.6,188.3l36.9,2.1l1.9,0.3l72.9,63.1l-9.1,37.7l-12.8,9.4l-12.3,4.6c0,0-42.9-9.3-61.2-13.3     c-5.1-1.1-10.5,0.2-14.6,3.5c-13.3,10.8-43.9,35.6-58.8,47.6c-5.2,4.2-7.5,11-6,17.5l10.6,44.7L601,418.1l-73.8-17     c0,0-34.4,2.5-40.3-17.6c-0.4-1.3-0.8-2.6-1.1-3.8l-3.6-22.9c-2.6-16.3,4-32.7,17.1-42.7c39.1-29.7,121.1-92.1,154.9-117.8     C659.1,192.4,664.7,189.7,670.6,188.3z"></path>			</g>			<g transform="matrix(0.523143,-0.463824,0.733083,0.438482,545.592,1136.24)">									<linearGradient id="SVGID_14_" gradientUnits="userSpaceOnUse" x1="-433.0986" y1="-1136.6439" x2="-432.6949" y2="-1136.6439" gradientTransform="matrix(-98.7134 102.1394 79.7165 98.7138 49090.6016 155705.0781)">					<stop offset="0" style="stop-color:#CA26FF"></stop>					<stop offset="1" style="stop-color:#4500B7"></stop>				</linearGradient>				<path class="st20" d="M1231.3-733.1c20.8,0,37.7,16.9,37.7,37.7c0,20.8-16.9,37.7-37.7,37.7s-37.7-16.9-37.7-37.7     C1193.6-716.2,1210.5-733.1,1231.3-733.1z"></path>			</g>			<g transform="matrix(0.119168,-0.105656,0.166991,0.0998833,1477.49,786.603)">									<ellipse transform="matrix(0.185 -0.9827 0.9827 0.185 5188.021 -3839.7559)" class="st21" cx="278.9" cy="-5047.9" rx="5.4" ry="7.8"></ellipse>			</g>			<g transform="matrix(0.166991,0.0998833,-0.119168,0.105656,1634.51,471.152)">									<ellipse transform="matrix(0.185 -0.9827 0.9827 0.185 -5402.8647 -2591.6465)" class="st21" cx="-4264" cy="1961.7" rx="5.4" ry="7.8"></ellipse>			</g>			<g transform="matrix(0.119168,-0.105656,0.166991,0.0998833,1537.94,822.761)">									<ellipse transform="matrix(0.185 -0.9827 0.9827 0.185 5400.1758 -4015.6902)" class="st21" cx="278.9" cy="-5263.7" rx="5.4" ry="7.8"></ellipse>			</g>			<g transform="matrix(0.166991,0.0998833,-0.119168,0.105656,1591.37,509.4)">									<ellipse transform="matrix(0.185 -0.9827 0.9827 0.185 -5190.7056 -2767.5864)" class="st21" cx="-4264" cy="1745.8" rx="5.4" ry="7.8"></ellipse>			</g>			<g transform="matrix(0.437638,0.261767,-0.318323,0.282229,1309.3,278.265)">									<linearGradient id="SVGID_15_" gradientUnits="userSpaceOnUse" x1="-1569.8173" y1="3518.6992" x2="-1569.4136" y2="3518.6992" gradientTransform="matrix(-29.6887 -15.6145 4.0732 29.6887 -61711.3047 -128043.8984)">					<stop offset="0" style="stop-color:#CA26FF"></stop>					<stop offset="1" style="stop-color:#4500B7"></stop>				</linearGradient>				<path class="st22" d="M-807.9,851.3c20.8,0,37.7,16.9,37.7,37.7c0,20.8-16.9,37.7-37.7,37.7c-20.8,0-37.7-16.9-37.7-37.7     C-845.6,868.2-828.7,851.3-807.9,851.3z"></path>			</g>			<g transform="matrix(0.437638,0.261767,-0.318323,0.282229,1207.35,352.565)">									<linearGradient id="SVGID_16_" gradientUnits="userSpaceOnUse" x1="-1546.441" y1="3225.9922" x2="-1546.0374" y2="3225.9922" gradientTransform="matrix(-29.6887 -15.6145 4.0732 29.6887 -59810.2734 -119159.4844)">					<stop offset="0" style="stop-color:#CA26FF"></stop>					<stop offset="1" style="stop-color:#4500B7"></stop>				</linearGradient>				<path class="st23" d="M-793.1,680.6c20.8,0,37.7,16.9,37.7,37.7c0,20.8-16.9,37.7-37.7,37.7c-20.8,0-37.7-16.9-37.7-37.7     C-830.8,697.5-813.9,680.6-793.1,680.6z"></path>			</g>			<g transform="matrix(0.314327,0.18801,-0.228631,0.202706,1440.13,439.141)">									<linearGradient id="SVGID_17_" gradientUnits="userSpaceOnUse" x1="-2802.8779" y1="4648.8184" x2="-2802.4744" y2="4648.8184" gradientTransform="matrix(-43.875 -28.5135 2.2353 43.8751 -135065.8906 -282863.2813)">					<stop offset="0" style="stop-color:#1C004A"></stop>					<stop offset="1" style="stop-color:#000000"></stop>				</linearGradient>				<path class="st24" d="M-1718.1,956.7c20.8,0,37.7,16.9,37.7,37.7c0,20.8-16.9,37.7-37.7,37.7s-37.7-16.9-37.7-37.7     C-1755.8,973.5-1738.9,956.7-1718.1,956.7z"></path>			</g>			<g transform="matrix(0.314327,0.18801,-0.228631,0.202706,1338.18,513.441)">									<linearGradient id="SVGID_18_" gradientUnits="userSpaceOnUse" x1="-2769.1724" y1="4244.3843" x2="-2768.7686" y2="4244.3843" gradientTransform="matrix(-43.875 -28.5135 2.2353 43.8751 -132662.4844 -264395.2813)">					<stop offset="0" style="stop-color:#1C004A"></stop>					<stop offset="1" style="stop-color:#000000"></stop>				</linearGradient>				<path class="st25" d="M-1697.5,719c20.8,0,37.7,16.9,37.7,37.7c0,20.8-16.9,37.7-37.7,37.7s-37.7-16.9-37.7-37.7     C-1735.2,735.9-1718.3,719-1697.5,719z"></path>			</g>			<g transform="matrix(0.392896,0.235004,-0.285779,0.253375,1360.1,309.233)">									<linearGradient id="SVGID_19_" gradientUnits="userSpaceOnUse" x1="-1950.2361" y1="3896.8716" x2="-1949.8325" y2="3896.8716" gradientTransform="matrix(47.3623 -37.0206 -49.5989 -47.3622 284571.3438 113324.1719)">					<stop offset="0" style="stop-color:#CA26FF"></stop>					<stop offset="1" style="stop-color:#4500B7"></stop>				</linearGradient>				<path class="st26" d="M-1047.1,923.2c20.8,0,37.7,16.9,37.7,37.7c0,20.8-16.9,37.7-37.7,37.7c-20.8,0-37.7-16.9-37.7-37.7     C-1084.8,940.1-1067.9,923.2-1047.1,923.2z"></path>			</g>			<g transform="matrix(0.392896,0.235004,-0.285779,0.253375,1258.14,383.533)">									<linearGradient id="SVGID_20_" gradientUnits="userSpaceOnUse" x1="-1920.1359" y1="3580.0923" x2="-1919.7322" y2="3580.0923" gradientTransform="matrix(47.3623 -37.0206 -49.5989 -47.3622 267450.2813 99244.9922)">					<stop offset="0" style="stop-color:#CA26FF"></stop>					<stop offset="1" style="stop-color:#4500B7"></stop>				</linearGradient>				<path class="st27" d="M-1030.6,733c20.8,0,37.7,16.9,37.7,37.7c0,20.8-16.9,37.7-37.7,37.7c-20.8,0-37.7-16.9-37.7-37.7     C-1068.4,749.9-1051.5,733-1030.6,733z"></path>			</g>			<g transform="matrix(0.273616,0.163659,-0.199019,0.176453,1486.65,464.848)">									<linearGradient id="SVGID_21_" gradientUnits="userSpaceOnUse" x1="-3400.9934" y1="5298.5532" x2="-3400.5898" y2="5298.5532" gradientTransform="matrix(-46.271 24.8501 40.5796 46.2711 -374494.9688 -159535.2656)">					<stop offset="0" style="stop-color:#CA26FF"></stop>					<stop offset="1" style="stop-color:#4500B7"></stop>				</linearGradient>				<path class="st28" d="M-2162.8,1071.6c20.8,0,37.7,16.9,37.7,37.7c0,20.8-16.9,37.7-37.7,37.7s-37.7-16.9-37.7-37.7     C-2200.5,1088.5-2183.6,1071.6-2162.8,1071.6z"></path>			</g>			<g transform="matrix(0.273616,0.163659,-0.199019,0.176453,1384.69,539.148)">									<linearGradient id="SVGID_22_" gradientUnits="userSpaceOnUse" x1="-3360.0085" y1="4832.9365" x2="-3359.605" y2="4832.9365" gradientTransform="matrix(-38.3719 22.0431 34.6509 38.3719 -298479.5625 -110537.2813)">					<stop offset="0" style="stop-color:#CA26FF"></stop>					<stop offset="1" style="stop-color:#4500B7"></stop>				</linearGradient>				<path class="st29" d="M-2139.2,798.6c20.8,0,37.7,16.9,37.7,37.7c0,20.8-16.9,37.7-37.7,37.7c-20.8,0-37.7-16.9-37.7-37.7     C-2176.9,815.5-2160,798.6-2139.2,798.6z"></path>			</g>			<g transform="matrix(0.740432,-0.535748,0.813405,0.603155,-141.9,1354.28)">									<linearGradient id="SVGID_23_" gradientUnits="userSpaceOnUse" x1="220.6114" y1="-657.1337" x2="221.015" y2="-657.1337" gradientTransform="matrix(-110.9412 134.8308 91.378 110.9406 85933.2656 42699.6289)">					<stop offset="0" style="stop-color:#CA26FF"></stop>					<stop offset="1" style="stop-color:#4500B7"></stop>				</linearGradient>				<path class="st30" d="M1406.4-460.9c20.8,0,37.7,16.9,37.7,37.7s-16.9,37.7-37.7,37.7s-37.7-16.9-37.7-37.7     S1385.6-460.9,1406.4-460.9z"></path>			</g>			<g transform="matrix(0.89402,-0.646878,0.98213,0.728268,-435.898,1585.82)">				<path class="st21" d="M1514.1-382.5c0-0.9-0.7-1.5-1.7-1.5c-1.9,0-5,0-7.4,0c-0.7,0-1.5,0.3-2.2,0.9c-0.6,0.6-1,1.3-1,2     c0,1.8,0,4.1,0,5.1c0,0.4,0.1,0.8,0.4,1.1c0.9,0.9,2.8,2.9,4.2,4.3c0.4,0.4,1,0.6,1.7,0.4c0.7-0.1,1.4-0.5,1.9-1     c1.1-1.1,2.4-2.4,3.2-3.3c0.5-0.5,0.8-1.2,0.8-1.8C1514.1-377.8,1514.1-380.7,1514.1-382.5z"></path>			</g>			<g transform="matrix(0.98213,0.728268,-0.89402,0.646878,363.02,-567.689)">				<path class="st21" d="M737.5,571.1c0-0.7-0.3-1.5-0.9-2.2c-0.6-0.6-1.3-1-2-1c-2.5,0-5.9,0-7.9,0c-0.9,0-1.5,0.7-1.5,1.7     c0,1.7,0,4.2,0,5.7c0,0.8,0.4,1.7,1,2.3c0.9,1,2.4,2.4,3.5,3.5c1,1,2.2,1.2,2.9,0.4c1.4-1.4,3.5-3.6,4.4-4.5     c0.3-0.3,0.5-0.7,0.5-1.3C737.5,574.7,737.5,572.8,737.5,571.1z"></path>			</g>			<g transform="matrix(-0.89402,0.646878,-0.98213,-0.728268,3400.83,250.809)">				<path class="st21" d="M1689.5,1346.1c0-0.9-0.7-1.5-1.7-1.5c-1.9,0-5,0-7.4,0c-0.7,0-1.5,0.3-2.2,0.9c-0.6,0.6-1,1.3-1,2     c0,1.8,0,4.1,0,5.1c0,0.4,0.1,0.8,0.4,1.1c0.9,0.9,2.8,2.9,4.2,4.3c0.4,0.4,1,0.6,1.7,0.4c0.7-0.1,1.4-0.5,1.9-1     c1.1-1.1,2.4-2.4,3.2-3.3c0.5-0.5,0.8-1.2,0.8-1.8C1689.5,1350.8,1689.5,1347.9,1689.5,1346.1z"></path>			</g>			<g transform="matrix(-0.98213,-0.728268,0.89402,-0.646878,2601.92,2404.31)">				<path class="st21" d="M2466.1,395.8c0-0.7-0.3-1.5-0.9-2.2c-0.6-0.6-1.3-1-2-1c-2.5,0-5.9,0-7.9,0c-0.9,0-1.5,0.7-1.5,1.7     c0,1.7,0,4.2,0,5.7c0,0.8,0.4,1.7,1,2.3c0.9,1,2.4,2.4,3.5,3.5c1,1,2.2,1.2,2.9,0.4c1.4-1.4,3.5-3.6,4.4-4.5     c0.3-0.3,0.5-0.7,0.5-1.3C2466.1,399.4,2466.1,397.5,2466.1,395.8z"></path>			</g>			<g transform="matrix(1,0,0,1,31.1992,47.3858)">									<linearGradient id="SVGID_24_" gradientUnits="userSpaceOnUse" x1="-541.7127" y1="792.6777" x2="-541.309" y2="792.6777" gradientTransform="matrix(655.673 640.255 640.255 -655.673 -151873.5156 866880.9375)">					<stop offset="0" style="stop-color:#FFD7AF"></stop>					<stop offset="0.38" style="stop-color:#FEA590"></stop>					<stop offset="1" style="stop-color:#E76581"></stop>				</linearGradient>				<path class="st31" d="M662.9,590.7c0,0-148.8-110.2-202.9-150.2c-12.2-9-19.4-23.3-19.4-38.4c0-25.6,0-62.5,0-62.5     s-1.2-3.7-2.5-7.8c-2.2-6.8-1.3-14.2,2.3-20.3c10.6-18.1,32.2-55.3,32.2-55.3s3.2-9.5,18.5-1.4c15.3,8.1-6.8,27.5-6.8,27.5     s0,20.8,0,34.6c0,7.6,3.2,14.9,8.8,20c17.9,16.5,57.1,52.4,57.1,52.4l-3.5-34.6l-1.2-65.2c0,0,28.4-13,29.4,21.4     c7,34,9.3,39.2,9.3,39.2s22.7,22.3,38.1,49.3c15.3,27.1,7.2,60,7.2,60l137.1,122.2"></path>				<path d="M437.2,324l0,0.1l0,0l0,0.1l0,0.2l0.1,0.3l0.1,0.4l0.1,0.4l0.1,0.5l0.1,0.5l0.1,0.6l0.1,0.3l0.1,0.3l0.1,0.3l0.1,0.3     l0.1,0.3l0.1,0.3l0.1,0.4l0.1,0.4l0.1,0.4l0.1,0.4l0.1,0.4l0.1,0.4l0.1,0.4l0.1,0.4l0.1,0.2l0,0.2l0.1,0.4l0.1,0.4l0.1,0.4     l0.1,0.4l0.1,0.5l0.1,0.5l0.1,0.5l0.1,0.5l0.1,0.5l0.1,0.5l0.1,0.5l0.1,0.5l0.1,0.5l0.1,0.5l0.1,0.5l0.1,0.5l0.1,0.5l0.1,0.2     l0.1,0.2l0.1,0.2l0.1,0.3l0.1,0.2l0.1,0.3l0.1,0.3l0.1,0.3l0.1,0.2l0,0l0.1,0.3l0.1,0.3l0.1,0.3l0.1,0.3l0.1,0.3l0.1,0.3     l0.1,0.2l0.1,0.2l0.1,0.2l0.1,0.2l0.1,0.2l0.1,0.2l0.1,0.2l0.1,0.2l0.1,0.2l0.2,0.5l0.2,0.6l0.2,0.6l0,0.1l0.1,0.5l0.2,0.7     l0.2,0.7l0.4,1.5l0.5,1.6l0.2,0.7l0.3,0.9l1,3.6l0.3,0.9l0.3,1l0.5,1.6l0.1,0.4l0.6,2l0,0.1l0.2,0.9l0.3,1l0.2,0.7l0.1,0.4     l0.3,1.1l0.3,1.1l0.1,0.3l0.2,0.7l0.3,1.1l0.3,1.1l0.3,1.1l0.3,1.1l0.3,1.1l0,0l0.3,1.1l0.3,1.1l0.3,1.1l0.3,1.1l0.3,1.1     l0.3,1.1l0,0l0.3,1l0.3,1l0.3,1l0.3,1l0.1,0.5l0.1,0.5l0.1,0.5l0.1,0.5l0,0.2l0.1,0.3l0.1,0.5l0.1,0.5l0.1,0.5l0.1,0.5l0.1,0.5     l0.1,0.5l0.1,0.5l0.1,0.5l0.1,0.4l0.1,0.4l0.1,0.4l0.1,0.4l0.1,0.4l0.1,0.4l0.1,0.4l0.1,0.4l0.1,0.4l0.1,0.4l0.1,0.4l0.1,0.4     l0.1,0.4l0.1,0.4l0.1,0.4l0,0l0.1,0.3l0.1,0.3l0.1,0.3l0.1,0.3l0.1,0.3l0.1,0.3l0.1,0.3l0.1,0.3l0.1,0.3l0.1,0.3l0.1,0.3     l0.1,0.3l0.1,0.3l0,0.1l0,0l0,0.1l-0.1,0.3l-0.3-0.1l0-0.1l0,0l0-0.1l-0.1-0.3l-0.1-0.3l-0.1-0.3l-0.1-0.3l-0.1-0.3l-0.1-0.3     l-0.1-0.3l-0.1-0.3l-0.1-0.3l-0.1-0.3l-0.1-0.3l-0.1-0.3l-0.1-0.3l0,0l-0.1-0.4l-0.1-0.4l-0.1-0.4l-0.1-0.4l-0.1-0.4l-0.1-0.4     l-0.1-0.4l-0.1-0.4l-0.1-0.4l-0.1-0.4l-0.1-0.4l-0.1-0.4l-0.1-0.4l-0.1-0.4l-0.1-0.4l-0.1-0.4l-0.1-0.5l-0.1-0.5l-0.1-0.5     l-0.1-0.5l-0.2-0.5l-0.2-0.5l-0.2-0.5l-0.1-0.3l-0.1-0.2l-0.2-0.5l-0.2-0.5l-0.2-0.5l-0.2-0.5l-0.3-1l-0.3-1l-0.3-1l-0.3-1l0,0     l-0.3-1.1l-0.3-1.1l-0.3-1.1l-0.3-1.1l-0.3-1.1l-0.3-1.1l0,0l-0.3-1.1l-0.3-1.1l-0.3-1.1l-0.3-1.1l-0.3-1.1l-0.2-0.7l-0.1-0.3     l-0.3-1.1l-0.3-1.1l-0.1-0.4l-0.2-0.7l-0.3-1L446,365l0-0.1l-0.5-2l-0.1-0.4l-0.4-1.6l-0.3-1l-0.2-0.9l-0.9-3.6l-0.2-0.9     l-0.2-0.7l-0.4-1.6l-0.4-1.5l-0.2-0.7l-0.2-0.7l-0.1-0.5l0-0.1l-0.1-0.6l-0.1-0.6l-0.1-0.5l-0.1-0.3l-0.1-0.3l-0.1-0.3l-0.1-0.3     l-0.1-0.3l-0.1-0.3l-0.1-0.3l-0.1-0.3l-0.1-0.3l-0.1-0.3l-0.1-0.3l-0.1-0.3l-0.1-0.3l-0.1-0.3l-0.1-0.3l0,0l-0.1-0.2l-0.1-0.3     l-0.1-0.3l-0.1-0.3l-0.1-0.3l-0.1-0.3l-0.1-0.3l-0.1-0.3l-0.1-0.3l-0.1-0.5l-0.1-0.5l-0.1-0.5l-0.1-0.5l-0.1-0.5l-0.1-0.5     l-0.1-0.5l-0.1-0.5l-0.1-0.5l-0.1-0.5l-0.1-0.5l-0.1-0.5l-0.1-0.5l-0.1-0.5l-0.1-0.4l-0.1-0.4l-0.1-0.4l0-0.2l0-0.2l-0.1-0.4     l-0.1-0.4l-0.1-0.4l-0.1-0.4l-0.1-0.4l-0.1-0.4l-0.1-0.4l-0.1-0.4l-0.1-0.4l-0.1-0.3l-0.1-0.3l-0.1-0.3l0-0.3l0-0.3l-0.1-0.6     l-0.1-0.5l-0.1-0.5l-0.1-0.4l-0.1-0.4l0-0.3l0-0.2l0-0.1l0,0l0-0.1l0.2-0.2L437.2,324z"></path>									<linearGradient id="SVGID_25_" gradientUnits="userSpaceOnUse" x1="-542.345" y1="789.9244" x2="-541.9413" y2="789.9244" gradientTransform="matrix(-99.7794 209.171 209.171 99.7794 -218751.7344 35064.1172)">					<stop offset="0" style="stop-color:#E0375B"></stop>					<stop offset="1" style="stop-color:#E0375B;stop-opacity:0"></stop>				</linearGradient>				<path class="st32" d="M443,417c9.5,2.2,22,4.2,37.8,5.7c49.6,4.6,63.8-3.5,97.5,50c24.3,38.6,54,83.2,102.8,116.4l-18.3,1.6     c0,0-148.8-110.2-202.9-150.2C451.9,434.5,446.1,426.2,443,417z"></path>									<linearGradient id="SVGID_26_" gradientUnits="userSpaceOnUse" x1="-542.4282" y1="794.2962" x2="-542.0246" y2="794.2962" gradientTransform="matrix(343.17 -36.6048 -36.6048 -343.17 215790.25 253168.7969)">					<stop offset="0" style="stop-color:#E0375B"></stop>					<stop offset="1" style="stop-color:#E0375B;stop-opacity:0"></stop>				</linearGradient>				<path class="st33" d="M565.5,289.2c5,2.8,9.1,9.1,9.5,21.7c7,34,9.3,39.2,9.3,39.2s22.7,22.3,38.1,49.3c15.3,27.1,7.2,60,7.2,60     l137.1,122.2l-4.2,0.4c-28.7-24.4-89.9-76.5-135.6-116.3c-27.6-27.5-3.8-46.9-11.7-70.9c-4.9-15.1-20-30-30.4-38.9     c-6.8-5.8-10.7-14.2-10.7-23.1c0-2.1,0-4.5,0-7.2C573.9,311.7,568.7,297.8,565.5,289.2z"></path>									<linearGradient id="SVGID_27_" gradientUnits="userSpaceOnUse" x1="-541.8525" y1="795.2065" x2="-541.4488" y2="795.2065" gradientTransform="matrix(170.146 -83.2673 -83.2673 -170.146 158878.9063 90532.0703)">					<stop offset="0" style="stop-color:#E0375B"></stop>					<stop offset="1" style="stop-color:#E0375B;stop-opacity:0"></stop>				</linearGradient>				<path class="st34" d="M493.5,256.3c10.3,8.8-9.2,25.9-9.2,25.9s0,20.8,0,34.6c0,7.6,3.2,14.9,8.8,20l56.3,51.7l0.6,3.5     c0,0-65.3-39-68.6-54.4c-3.3-15.4-4.1-46.7,0-61.2C488.2,269.3,491.7,261.8,493.5,256.3z"></path>				<path class="st35" d="M555.5,287.1v21.5c0,0,0,8-9.6,6l-0.4-25.1C545.5,289.5,550,287.4,555.5,287.1z"></path>			</g>			<g transform="matrix(1,0,0,1,31.1992,47.3858)">									<linearGradient id="SVGID_28_" gradientUnits="userSpaceOnUse" x1="-541.9185" y1="792.4374" x2="-541.5148" y2="792.4374" gradientTransform="matrix(571.586 438.22 558.145 -448.773 -131899.4063 593291.75)">					<stop offset="0" style="stop-color:#FFD7AF"></stop>					<stop offset="0.38" style="stop-color:#FEA590"></stop>					<stop offset="1" style="stop-color:#E76581"></stop>				</linearGradient>				<path class="st36" d="M740.9,251.3l-61.7-5c0,0-26-6.9-31,9c-5.1,15.9,15.5,15.6,31,17.9l29.9,8.1c0,0,27.1,29.2,37.2,38.6     c10.1,9.4,26.7,33.5,77.4,36.7c62.2,46.9,63.6,44.6,63.6,44.6v-95.1c0,0-109.4-86.5-135.4-107.1c-3.6-2.9-7.8-4.9-12.3-6.1     C720,188,664,174,640.7,170c-5-0.7-10.2-0.4-15.1,0.9C609.1,175.2,598,182,598,182s1.7,11.4,15.2,8.8     c13.4-2.6,27.9-1.2,27.9-1.2s40.8,15.9,45.5,17.3C691.2,208.3,740.9,251.3,740.9,251.3z"></path>				<path d="M668.9,245.3L668.9,245.3l0.4,0l0.4,0l0.5,0l0.6,0l0.7,0l0.4,0l0.4,0l0.4,0l0.5,0l0.5,0l0.5,0l0.5,0l0.5,0l0.6,0l0.6,0     l0.6,0l0.6,0l0.6,0l0.6,0l0.6,0l0.1,0l0.5,0l0.7,0l0.7,0l0.7,0l0.7,0l0.7,0l0.7,0l0.7,0l0.7,0l0.7,0l0.7,0l0.4,0l0.4,0l0.4,0     l0.4,0l0.4,0l0.4,0l0.4,0l0.4,0l0.4,0l0.4,0l0.4,0l0.4,0l0.4,0l0.4,0l0.4,0l0.4,0l0.1,0l0.3,0l0.4,0l0.4,0l0.4,0l0.4,0l0.4,0     l0.4,0l0.4,0l0.4,0l0.4,0l0.4,0l0.4,0l0.4,0l0.4,0l0.4,0l0.4,0l0.4,0l0.4,0l0.4,0l0.3,0l0,0l0.4,0l0.4,0l0.4,0l0.4,0l0.4,0     l0.3,0l0.4,0l0.3,0l0.3,0l0.3,0l0.3,0l0.3,0l0.2,0l0.2,0l0.2,0l0.2,0l0.2,0l0.2,0l0.2,0l0.2,0l0.2,0l0.2,0l0.2,0l0.2,0l0.2,0     l0.2,0l0.2,0l0.2,0l0.1,0l0.1,0l0.2,0l0.2,0l0.2,0l0.2,0l0.2,0l0.2,0l0.2,0l0.2,0l0.2,0l0.5,0l0.5,0l0.5,0l0.5,0l0.5,0l0.6,0     l0.6,0l0.6,0l0.6,0l0.1,0l0.5,0l0.6,0l0.6,0l0.6,0l0.6,0l0.5,0l0.1,0l0.6,0l0.6,0l0.7,0l0.7,0l0.6,0l0.1,0l0.7,0.1l0.7,0.1     l0.7,0.1l0.7,0.1l0.7,0.1l0,0l0.7,0.1l0.7,0.1l0.7,0.1l0.7,0.1l0.7,0.1l0.2,0l0.5,0l0.7,0.1l0.7,0.1l0.7,0.1l0.7,0.1l0.7,0.1     l0.7,0.1l0.7,0.1l0.7,0.1l0.7,0.1l0.7,0.1l0.4,0l0.3,0l0.7,0.1l0.7,0.1l0.7,0.1l1.5,0.1l1.5,0.1l1.5,0.1l1.4,0.1l0.2,0l1.2,0.1     l1.4,0.1l1.4,0.1l1.4,0.1l1.4,0.1l1.3,0.1l0.2,0l1.1,0.1l1.3,0.1l1.3,0.1l1.2,0.1l1.2,0.1l1.2,0.1l1.1,0.1l1.1,0.1l1,0.1l1,0.1     l0.9,0.1l0.9,0.1l0.4,0l0.4,0l1.5,0.1l1.3,0.1l1,0.1l0.7,0.1l0.4,0l0.2,0l0.3,0.3l-0.3,0.3l-0.2,0l-0.4,0l-0.7,0l-1,0l-1.3,0     l-1.5,0l-0.4,0l-0.4,0l-0.9,0l-0.9,0l-1,0l-1,0l-1.1,0l-1.1,0l-1.2,0l-1.2,0l-1.2,0l-1.3,0l-1.3,0l-1.1,0l-0.2,0l-1.3,0l-1.4,0     l-1.4,0l-1.4,0l-1.4,0l-1.2,0l-0.2,0l-1.4-0.1l-1.5-0.1l-1.5-0.1l-1.5-0.1l-0.7,0l-0.7,0l-0.7,0l-0.3,0l-0.4,0l-0.7,0l-0.7,0     l-0.7,0l-0.7,0l-0.7,0l-0.7,0l-0.7,0l-0.7,0l-0.7,0l-0.7,0l-0.5,0l-0.2,0l-0.7,0l-0.7,0l-0.7,0l-0.7,0l-0.7,0l0,0l-0.7,0l-0.7,0     l-0.7,0l-0.7,0l-0.7,0l0,0l-0.6,0l-0.7-0.1l-0.7-0.1l-0.6-0.1l-0.6-0.1l-0.1,0l-0.5,0l-0.6-0.1l-0.6-0.1l-0.6-0.1l-0.6-0.1     l-0.5,0l-0.1,0l-0.6-0.1l-0.6-0.1l-0.6-0.1l-0.6-0.1l-0.5-0.1l-0.5-0.1l-0.5-0.1l-0.5-0.1l-0.5-0.1l-0.3,0l-0.2,0l-0.2,0l-0.2,0     l-0.2,0l-0.2,0l-0.2,0l-0.2,0l-0.2,0l-0.1,0l-0.1,0l-0.2,0l-0.2,0l-0.2,0l-0.2,0l-0.2,0l-0.2,0l-0.2,0l-0.2,0l-0.2,0l-0.2,0     l-0.2,0l-0.2,0l-0.2,0l-0.2,0l-0.2,0l-0.2,0l-0.3-0.1l-0.3-0.1l-0.3-0.1l-0.3-0.1l-0.3-0.1l-0.3-0.1l-0.3-0.1l-0.3-0.1l-0.3-0.1     l-0.4-0.1l-0.4-0.1l-0.4-0.1l0,0l-0.3-0.1l-0.4-0.1l-0.4-0.1l-0.4-0.1l-0.4-0.1l-0.4-0.1l-0.4-0.1l-0.4-0.1l-0.4-0.1l-0.4-0.1     l-0.4-0.1l-0.4-0.1l-0.4-0.1l-0.4,0l-0.4,0l-0.4,0l-0.4,0l-0.4,0l-0.4,0l-0.3,0l-0.1,0l-0.4,0l-0.4,0l-0.4,0l-0.4,0l-0.4,0     l-0.4,0l-0.4,0l-0.4,0l-0.4,0l-0.4,0l-0.4,0l-0.4,0l-0.4,0l-0.4,0l-0.4,0l-0.4,0l-0.7-0.1l-0.7-0.1l-0.7-0.1l-0.7-0.1l-0.7-0.1     l-0.7-0.1l-0.7-0.1l-0.7-0.1l-0.7-0.1l-0.7-0.1l-0.5-0.1l-0.1,0l-0.6-0.1l-0.6-0.1l-0.6-0.1l-0.6-0.1l-0.6-0.1l-0.6-0.1     l-0.6-0.1l-0.5-0.1l-0.5,0l-0.5,0l-0.5,0l-0.5,0l-0.4,0l-0.4,0l-0.4,0l-0.7-0.1l-0.6-0.1l-0.5,0l-0.4,0l-0.3,0l0,0l-0.2,0     l-0.3-0.3l0.3-0.3L668.9,245.3z"></path>									<linearGradient id="SVGID_29_" gradientUnits="userSpaceOnUse" x1="-540.9249" y1="787.6066" x2="-540.5212" y2="787.6066" gradientTransform="matrix(-74.5831 145.063 156.351 69.1983 -162665.7656 24263.5625)">					<stop offset="0" style="stop-color:#E0375B"></stop>					<stop offset="1" style="stop-color:#E0375B;stop-opacity:0"></stop>				</linearGradient>				<path class="st37" d="M710.3,282.4l-1.1-1.7c0,0,66.4,65.8,130.4,54.8c24.9,17.8,39.3,27.9,47.6,33.8v31.8     c0,0-1.3,2.3-63.6-44.6c-50.7-3.3-67.3-27.4-77.4-36.7C737.5,311.6,715.6,288.1,710.3,282.4z"></path>				<g transform="matrix(0.996798,0.0799553,-0.0799553,0.996798,66.8623,-139.875)">					<path class="st38" d="M619.9,339.9l20.4,0.8c0,0,4.5,13.5-1.2,17.2c-20.1-0.3-19.2-0.3-19.2-0.3S609.7,348.2,619.9,339.9z"></path>				</g>									<linearGradient id="SVGID_30_" gradientUnits="userSpaceOnUse" x1="-541.0787" y1="788.3173" x2="-540.6751" y2="788.3173" gradientTransform="matrix(-70.3437 84.2386 147.464 40.1837 -153595.8125 14095.5146)">					<stop offset="0" style="stop-color:#E0375B"></stop>					<stop offset="1" style="stop-color:#E0375B;stop-opacity:0"></stop>				</linearGradient>				<path class="st39" d="M606.1,190.7l38.8-7.2l52.3,20.8l76.8,49.1l-33.4-2.5c-4.4-3.8-49.7-42.7-54.1-44.1     c-4.7-1.4-45.5-17.3-45.5-17.3s-14.4-1.4-27.9,1.2C610.3,191.3,608,191.2,606.1,190.7z"></path>			</g>			<g transform="matrix(1,0,0,1,31.1992,47.3858)">									<linearGradient id="SVGID_31_" gradientUnits="userSpaceOnUse" x1="-545.8868" y1="791.1672" x2="-545.4832" y2="791.1672" gradientTransform="matrix(79.3166 73.1121 73.1121 -79.3166 -13982.9287 102892.8516)">					<stop offset="0" style="stop-color:#CA26FF"></stop>					<stop offset="1" style="stop-color:#4500B7"></stop>				</linearGradient>				<path class="st40" d="M582.3,211.1c1.1-0.9,2.7-1,3.9-0.2c6.5,4.1,26.2,16.5,36.4,23c1.4,0.9,2.3,2.4,2.3,4     c0.1,1.6-0.7,3.2-2.1,4.2c-12.2,8.8-39.4,28.4-48.3,34.8c-1.7,1.2-4,1.2-5.7,0c-7.4-5.2-27.2-18.9-35.9-25c-1-0.7-1.5-1.8-1.4-3     c0.1-1.2,0.8-2.2,1.8-2.8C545.1,238.4,574.7,217.1,582.3,211.1z"></path>			</g>			<g transform="matrix(1,0,0,1,31.1992,47.3858)">									<linearGradient id="SVGID_32_" gradientUnits="userSpaceOnUse" x1="-541.6768" y1="794.0991" x2="-541.2732" y2="794.0991" gradientTransform="matrix(354.293 32.2893 32.2893 -354.293 166593.5469 299290.6563)">					<stop offset="0" style="stop-color:#79F1A4"></stop>					<stop offset="1" style="stop-color:#0E5CAD"></stop>				</linearGradient>				<path class="st41" d="M495.4,471.9c0,0-48.8-18.7-96.7,2.3c-47.9,21-86.2,17.8-87.1-11.4C310.7,433.6,415.6,410.8,495.4,471.9z"></path>									<linearGradient id="SVGID_33_" gradientUnits="userSpaceOnUse" x1="-541.1355" y1="794.3962" x2="-540.7319" y2="794.3962" gradientTransform="matrix(345.215 -73.1152 -73.1152 -345.215 245204.7969 235161.6719)">					<stop offset="0" style="stop-color:#1E5C7E"></stop>					<stop offset="1" style="stop-color:#1E5C7E;stop-opacity:0"></stop>				</linearGradient>				<path class="st42" d="M324.5,483.7c18.1-23.9,94.1-45.4,166.2-13.3c-13.3-4-53-13.3-92,3.8C367.1,488,339.7,491.4,324.5,483.7z"></path>									<linearGradient id="SVGID_34_" gradientUnits="userSpaceOnUse" x1="-543.0196" y1="791.9958" x2="-542.616" y2="791.9958" gradientTransform="matrix(-8.7676 222.807 706.647 2.7644 -564067.125 119147.1563)">					<stop offset="0" style="stop-color:#F6D242"></stop>					<stop offset="1" style="stop-color:#FF52E5"></stop>				</linearGradient>				<path class="st43" d="M482.2,446.7c0,0-92.2-36.3-165.6-38.6c-73.4-2.3-106.3-32.5-87.6-55.5     C247.7,329.6,378.9,393.9,482.2,446.7z"></path>									<linearGradient id="SVGID_35_" gradientUnits="userSpaceOnUse" x1="-544.6232" y1="791.2908" x2="-544.2195" y2="791.2908" gradientTransform="matrix(-42.2529 115.819 155.698 31.4306 -145845.3594 38593.8398)">					<stop offset="0" style="stop-color:#CA16EB"></stop>					<stop offset="1" style="stop-color:#CA16EB;stop-opacity:0"></stop>				</linearGradient>				<path class="st44" d="M234.5,385.1c0.4-0.9,1-1.7,1.5-2.6C251.6,359.3,374.5,404,479,445c1.1,0.6,2.2,1.1,3.3,1.7     c0,0-92.2-36.3-165.6-38.6C276.6,406.8,248.6,397.3,234.5,385.1z"></path>									<linearGradient id="SVGID_36_" gradientUnits="userSpaceOnUse" x1="-542.401" y1="792.54" x2="-541.9973" y2="792.54" gradientTransform="matrix(118.477 274.58 274.58 -118.477 -152985.5313 243113.5781)">					<stop offset="0" style="stop-color:#5EFCE8"></stop>					<stop offset="1" style="stop-color:#736EFE"></stop>				</linearGradient>				<path class="st45" d="M434.7,414.9c0,0-62.2-40.6-76.4-87.2c-14.1-46.5,38.7-53.4,51.9-14.2     C423.6,352.7,413.6,368.3,434.7,414.9z"></path>									<linearGradient id="SVGID_37_" gradientUnits="userSpaceOnUse" x1="-543.2858" y1="795.3279" x2="-542.8821" y2="795.3279" gradientTransform="matrix(201.581 49.7737 85.1957 -117.769 42135.6094 121054.5781)">					<stop offset="0" style="stop-color:#2F27FE"></stop>					<stop offset="1" style="stop-color:#2F27FE;stop-opacity:0"></stop>				</linearGradient>				<path class="st46" d="M404.6,302.2c2.3,3.2,4.2,7,5.7,11.3c13.3,39.2,3.3,54.8,24.4,101.4c0,0-1.7-1.1-4.6-3.1     c-13.9-14.8-40.7-47-44.6-78C382.9,312.8,393,302.7,404.6,302.2z"></path>									<linearGradient id="SVGID_38_" gradientUnits="userSpaceOnUse" x1="-542.7606" y1="792.8126" x2="-542.357" y2="792.8126" gradientTransform="matrix(79.7787 173.608 173.608 -79.7787 -94038.0859 157745.625)">					<stop offset="0" style="stop-color:#79F1A4"></stop>					<stop offset="1" style="stop-color:#0E5CAD"></stop>				</linearGradient>				<path class="st47" d="M341.3,342.2c0,0-34.8-22.2-49.5-50.5c-14.7-28.2,26.6-39.8,35.7-1.3C336.6,329,341.3,342.2,341.3,342.2z"></path>									<linearGradient id="SVGID_39_" gradientUnits="userSpaceOnUse" x1="-538.44" y1="790.2784" x2="-538.0364" y2="790.2784" gradientTransform="matrix(-68.5881 -29.2123 -16.6551 120.3 -23424.7637 -110483.7031)">					<stop offset="0" style="stop-color:#2076AB"></stop>					<stop offset="1" style="stop-color:#04446C"></stop>				</linearGradient>				<path class="st48" d="M323.8,280.1c1.5,3,2.8,6.4,3.8,10.4c9.1,38.5,13.8,51.7,13.8,51.7s-1.1-0.7-2.9-2     c-7.9-10.8-16.4-24.7-20.4-39C315.1,290.7,318.3,283.4,323.8,280.1z"></path>			</g>			<g transform="matrix(1,0,0,1,31.1992,47.3858)">									<linearGradient id="SVGID_40_" gradientUnits="userSpaceOnUse" x1="-543.157" y1="791.8195" x2="-542.7534" y2="791.8195" gradientTransform="matrix(138.789 242.276 321.653 -104.539 -178702.8906 214705.9688)">					<stop offset="0" style="stop-color:#5EFCE8"></stop>					<stop offset="1" style="stop-color:#736EFE"></stop>				</linearGradient>				<path class="st49" d="M598,449.4c0,0,24.6-9.1,29.9-49.7c5.3-40.6,6.7-70.3,41.1-60.3C703.4,349.5,706.3,441.3,598,449.4z"></path>			</g>			<g transform="matrix(1,0,0,1,31.1992,47.3858)">									<linearGradient id="SVGID_41_" gradientUnits="userSpaceOnUse" x1="-544.2477" y1="795.4078" x2="-543.844" y2="795.4078" gradientTransform="matrix(267.48 48.9477 113.048 -115.814 56241.6602 119146.0781)">					<stop offset="0" style="stop-color:#2F27FE"></stop>					<stop offset="1" style="stop-color:#2F27FE;stop-opacity:0"></stop>				</linearGradient>				<path class="st50" d="M649.5,338.7c22.7,20.8,25.8,81.3-46.4,110.3c-1.7,0.2-3.4,0.3-5.1,0.5c0,0,24.6-9.1,29.9-49.7     C631.9,368.8,633.7,344.2,649.5,338.7z"></path>			</g>			<g transform="matrix(1,0,0,1,31.1992,47.3858)">									<linearGradient id="SVGID_42_" gradientUnits="userSpaceOnUse" x1="-542.4385" y1="788.9261" x2="-542.0349" y2="788.9261" gradientTransform="matrix(-17.7217 226.219 226.219 17.7217 -187282.6719 109036.4453)">					<stop offset="0" style="stop-color:#5EFCE8"></stop>					<stop offset="1" style="stop-color:#736EFE"></stop>				</linearGradient>				<path class="st51" d="M797,306.1c0,0-1.8,10.8-15.2,41.3c-13.5,30.6-7.9,51.5,15.2,52.4c21.4,0.8,22.6-32.8,12.1-55.6     C801,326.8,797,306.1,797,306.1z"></path>			</g>			<g transform="matrix(1,0,0,1,31.1992,47.3858)">									<linearGradient id="SVGID_43_" gradientUnits="userSpaceOnUse" x1="-550.8392" y1="793.366" x2="-550.4356" y2="793.366" gradientTransform="matrix(86.7244 36.6531 36.6531 -86.7244 19481.2109 89349.2578)">					<stop offset="0" style="stop-color:#2F27FE"></stop>					<stop offset="1" style="stop-color:#2F27FE;stop-opacity:0"></stop>				</linearGradient>				<path class="st52" d="M799.5,316.9c2,7.5,5.2,17.9,9.5,27.3c10.5,22.8,9.4,56.4-12.1,55.6c-1,0-1.9-0.1-2.8-0.2     c13.2-13.7,8.7-40,8.7-40L799.5,316.9z"></path>			</g>			<g transform="matrix(-0.0963682,0.359651,-0.359651,-0.0963682,2270.07,-232.647)">									<linearGradient id="SVGID_44_" gradientUnits="userSpaceOnUse" x1="4715.6611" y1="6446.3813" x2="4716.0649" y2="6446.3813" gradientTransform="matrix(40.4192 -19.4099 -10.2945 -76.2087 -122117.7031 586705.3125)">					<stop offset="0" style="stop-color:#F6D242"></stop>					<stop offset="1" style="stop-color:#FF52E5"></stop>				</linearGradient>				<path class="st53" d="M2124.6,3904.4c0,0-1.8,10.8-15.2,41.3c-13.5,30.6-7.9,51.5,15.2,52.4c21.4,0.8,22.6-32.8,12.1-55.6     C2128.6,3925.1,2124.6,3904.4,2124.6,3904.4z"></path>			</g>			<g transform="matrix(-0.325648,0.180524,-0.180524,-0.325648,2914.93,397.809)">									<linearGradient id="SVGID_45_" gradientUnits="userSpaceOnUse" x1="8620.2627" y1="3396.6514" x2="8620.666" y2="3396.6514" gradientTransform="matrix(46.609 -70.4686 -70.4686 -46.609 -157719.4688 769069.0625)">					<stop offset="0" style="stop-color:#5EFCE8"></stop>					<stop offset="1" style="stop-color:#736EFE"></stop>				</linearGradient>				<path class="st54" d="M4701.8,3295.4c0,0-1.8,10.8-15.2,41.3c-13.5,30.6-7.9,51.5,15.2,52.4c21.4,0.8,22.6-32.8,12.1-55.6     C4705.8,3316.1,4701.8,3295.4,4701.8,3295.4z"></path>			</g>			<g transform="matrix(1,0,0,1,31.1992,47.3858)">				<g transform="matrix(-0.369015,0.0496365,-0.0496365,-0.369015,2988.43,844.269)">											<linearGradient id="SVGID_46_" gradientUnits="userSpaceOnUse" x1="9374.0352" y1="1349.2351" x2="9374.4395" y2="1349.2351" gradientTransform="matrix(6.0729 -77.8037 -41.2651 -11.45 4314.8818 747285.1875)">						<stop offset="0" style="stop-color:#F6D242"></stop>						<stop offset="1" style="stop-color:#FF52E5"></stop>					</linearGradient>					<path class="st55" d="M5567.5,2501.8c0,0-1.8,10.8-15.2,41.3c-13.5,30.6-7.9,51.5,15.2,52.4c21.4,0.8,22.6-32.8,12.1-55.6      C5571.5,2522.5,5567.5,2501.8,5567.5,2501.8z"></path>				</g>				<g transform="matrix(-0.369015,0.0496365,-0.0496365,-0.369015,2988.43,844.269)">											<linearGradient id="SVGID_47_" gradientUnits="userSpaceOnUse" x1="9360.8193" y1="1454.0267" x2="9361.2236" y2="1454.0267" gradientTransform="matrix(-21.8535 34.5837 34.5837 21.8535 159828.3906 -352893.4375)">						<stop offset="0" style="stop-color:#F6D242"></stop>						<stop offset="1" style="stop-color:#FF52E5"></stop>					</linearGradient>					<path class="st56" d="M5570,2512.6c2,7.5,5.2,17.9,9.5,27.3c10.5,22.8,9.4,56.4-12.1,55.6c-1,0-1.9-0.1-2.8-0.2      c13.2-13.7,8.7-40,8.7-40L5570,2512.6z"></path>				</g>			</g>			<g transform="matrix(-0.959313,-0.282344,0.282344,-0.959313,3981.01,2237.6)">				<g transform="matrix(-0.369015,0.0496365,-0.0496365,-0.369015,2988.43,844.269)">											<linearGradient id="SVGID_48_" gradientUnits="userSpaceOnUse" x1="-4856.7075" y1="1387.4255" x2="-4856.3042" y2="1387.4255" gradientTransform="matrix(5.8252 77.8709 41.3008 -10.9832 -30561.4902 393150.1563)">						<stop offset="0" style="stop-color:#F6D242"></stop>						<stop offset="1" style="stop-color:#FF52E5"></stop>					</linearGradient>					<path class="st57" d="M-1549.3-284.7c0,0-1.8,10.8-15.2,41.3c-13.5,30.6-7.9,51.5,15.2,52.4c21.4,0.8,22.6-32.8,12.1-55.6      C-1545.3-264.1-1549.3-284.7-1549.3-284.7z"></path>				</g>				<g transform="matrix(-0.369015,0.0496365,-0.0496365,-0.369015,2988.43,844.269)">											<linearGradient id="SVGID_49_" gradientUnits="userSpaceOnUse" x1="-4832.8486" y1="1498.3118" x2="-4832.4448" y2="1498.3118" gradientTransform="matrix(11.1999 -39.3468 -39.3468 -11.1999 111511.2422 -173548.9688)">						<stop offset="0" style="stop-color:#F6D242"></stop>						<stop offset="1" style="stop-color:#FF52E5"></stop>					</linearGradient>					<path class="st58" d="M-1546.8-274c2,7.5,5.2,17.9,9.5,27.3c10.5,22.8,9.4,56.4-12.1,55.6c-1,0-1.9-0.1-2.8-0.2      c13.2-13.7,8.7-40,8.7-40L-1546.8-274z"></path>				</g>			</g>			<g transform="matrix(-0.0963682,0.359651,-0.359651,-0.0963682,2270.07,-232.647)">									<linearGradient id="SVGID_50_" gradientUnits="userSpaceOnUse" x1="4693.3364" y1="6492.0693" x2="4693.7402" y2="6492.0693" gradientTransform="matrix(-35.0063 -19.4871 -19.4871 35.0063 292892.5938 -131800.25)">					<stop offset="0" style="stop-color:#F6D242"></stop>					<stop offset="1" style="stop-color:#FF52E5"></stop>				</linearGradient>				<path class="st59" d="M2127.2,3915.2c2,7.5,5.2,17.9,9.5,27.3c10.5,22.8,9.4,56.4-12.1,55.6c-1,0-1.9-0.1-2.8-0.2     c13.2-13.7,8.7-40,8.7-40L2127.2,3915.2z"></path>			</g>			<g transform="matrix(-0.325648,0.180524,-0.180524,-0.325648,2914.93,397.809)">									<linearGradient id="SVGID_51_" gradientUnits="userSpaceOnUse" x1="8566.0967" y1="3402.3008" x2="8566.5" y2="3402.3008" gradientTransform="matrix(-21.6249 -27.5918 -27.5918 21.6249 283810.5938 166124.5313)">					<stop offset="0" style="stop-color:#2F27FE"></stop>					<stop offset="1" style="stop-color:#2F27FE;stop-opacity:0"></stop>				</linearGradient>				<path class="st60" d="M4704.4,3306.2c2,7.5,5.2,17.9,9.5,27.3c10.5,22.8,9.4,56.4-12.1,55.6c-1,0-1.9-0.1-2.8-0.2     c13.2-13.7,8.7-40,8.7-40L4704.4,3306.2z"></path>			</g>			<g transform="matrix(-0.149097,0.341183,-0.341183,-0.149097,1567.8,433.592)">									<linearGradient id="SVGID_52_" gradientUnits="userSpaceOnUse" x1="3211.3523" y1="4677.0796" x2="3211.7559" y2="4677.0796" gradientTransform="matrix(38.4238 -30.5944 -16.2265 -72.4465 -46288.6758 440159.2188)">					<stop offset="0" style="stop-color:#F6D242"></stop>					<stop offset="1" style="stop-color:#FF52E5"></stop>				</linearGradient>				<path class="st61" d="M1212.6,3071.7c0,0-1.8,10.8-15.2,41.3c-13.5,30.6-7.9,51.5,15.2,52.4c21.4,0.8,22.6-32.8,12.1-55.6     C1216.6,3092.4,1212.6,3071.7,1212.6,3071.7z"></path>			</g>			<g transform="matrix(0.0282208,0.371267,-0.371267,0.0282208,1241.38,440.126)">									<linearGradient id="SVGID_53_" gradientUnits="userSpaceOnUse" x1="697.8109" y1="4766.7583" x2="698.2145" y2="4766.7583" gradientTransform="matrix(83.4875 12.9637 12.9637 -83.4875 -120120.5859 391319.1875)">					<stop offset="0" style="stop-color:#5EFCE8"></stop>					<stop offset="1" style="stop-color:#736EFE"></stop>				</linearGradient>				<path class="st62" d="M-70.8,2399.1c0,0-1.8,10.8-15.2,41.3c-13.5,30.6-7.9,51.5,15.2,52.4c21.4,0.8,22.6-32.8,12.1-55.6     C-66.8,2419.7-70.8,2399.1-70.8,2399.1z"></path>			</g>			<g transform="matrix(1,0,0,1,31.1992,47.3858)">				<g transform="matrix(-0.359279,0.0977452,-0.0977452,-0.359279,2057.86,1014.17)">											<linearGradient id="SVGID_54_" gradientUnits="userSpaceOnUse" x1="6565.5049" y1="2400.3918" x2="6565.9087" y2="2400.3918" gradientTransform="matrix(-9.0969 -86.1617 -54.5895 14.3581 194477.7188 534210.875)">						<stop offset="0" style="stop-color:#79F1A4"></stop>						<stop offset="1" style="stop-color:#0E5CAD"></stop>					</linearGradient>					<path class="st63" d="M3735.2,2973.9c0,0-1.8,10.8-15.2,41.3c-13.5,30.6-7.9,51.5,15.2,52.4c21.4,0.8,22.6-32.8,12.1-55.6      C3739.2,2994.6,3735.2,2973.9,3735.2,2973.9z"></path>				</g>				<g transform="matrix(-0.359279,0.0977452,-0.0977452,-0.359279,2057.86,1014.17)">											<linearGradient id="SVGID_55_" gradientUnits="userSpaceOnUse" x1="6550.7656" y1="2421.4685" x2="6551.1694" y2="2421.4685" gradientTransform="matrix(-27.5756 -21.6456 -21.6456 27.5756 236782.9219 78044.3594)">						<stop offset="0" style="stop-color:#2F27FE"></stop>						<stop offset="1" style="stop-color:#2F27FE;stop-opacity:0"></stop>					</linearGradient>					<path class="st64" d="M3737.7,2984.7c2,7.5,5.2,17.9,9.5,27.3c10.5,22.8,9.4,56.4-12.1,55.6c-1,0-1.9-0.1-2.8-0.2      c13.2-13.7,8.7-40,8.7-40L3737.7,2984.7z"></path>				</g>			</g>			<g transform="matrix(-0.259729,0.965682,-0.965682,-0.259729,3044.6,376.949)">				<g transform="matrix(-0.359279,0.0977452,-0.0977452,-0.359279,2057.86,1014.17)">											<linearGradient id="SVGID_56_" gradientUnits="userSpaceOnUse" x1="3368.541" y1="-5477.5088" x2="3368.9446" y2="-5477.5088" gradientTransform="matrix(-50.3534 36.2441 22.9632 79.4756 299677.4375 311047.3438)">						<stop offset="0" style="stop-color:#79F1A4"></stop>						<stop offset="1" style="stop-color:#0E5CAD"></stop>					</linearGradient>					<path class="st65" d="M4298.3-2198.2c0,0-1.8,10.8-15.2,41.3c-13.5,30.6-7.9,51.5,15.2,52.4c21.4,0.8,22.6-32.8,12.1-55.6      C4302.3-2177.6,4298.3-2198.2,4298.3-2198.2z"></path>				</g>				<g transform="matrix(-0.359279,0.0977452,-0.0977452,-0.359279,2057.86,1014.17)">											<linearGradient id="SVGID_57_" gradientUnits="userSpaceOnUse" x1="3337.666" y1="-5450.9058" x2="3338.0696" y2="-5450.9058" gradientTransform="matrix(-13.7405 32.2513 32.2513 13.7405 225950.4688 -34894.8164)">						<stop offset="0" style="stop-color:#2F27FE"></stop>						<stop offset="1" style="stop-color:#2F27FE;stop-opacity:0"></stop>					</linearGradient>					<path class="st66" d="M4300.8-2187.4c2,7.5,5.2,17.9,9.5,27.3c10.5,22.8,9.4,56.4-12.1,55.6c-1,0-1.9-0.1-2.8-0.2      c13.2-13.7,8.7-40,8.7-40L4300.8-2187.4z"></path>				</g>			</g>			<g transform="matrix(-0.359279,0.0977452,-0.0977452,-0.359279,1918.25,995.56)">									<linearGradient id="SVGID_58_" gradientUnits="userSpaceOnUse" x1="6173.8018" y1="2108.9502" x2="6174.2051" y2="2108.9502" gradientTransform="matrix(28.4788 -79.5436 -79.5436 -28.4788 -4566.6548 553948.0625)">					<stop offset="0" style="stop-color:#5EFCE8"></stop>					<stop offset="1" style="stop-color:#736EFE"></stop>				</linearGradient>				<path class="st67" d="M3498.9,2800.1c0,0-1.8,10.8-15.2,41.3c-13.5,30.6-7.9,51.5,15.2,52.4c21.4,0.8,22.6-32.8,12.1-55.6     C3502.9,2820.8,3498.9,2800.1,3498.9,2800.1z"></path>			</g>			<g transform="matrix(-0.149097,0.341183,-0.341183,-0.149097,1567.8,433.592)">									<linearGradient id="SVGID_59_" gradientUnits="userSpaceOnUse" x1="3245.2053" y1="4687.8257" x2="3245.6091" y2="4687.8257" gradientTransform="matrix(-60.6595 -19.3174 -19.3174 60.6595 288586 -218501.2344)">					<stop offset="0" style="stop-color:#F6D242"></stop>					<stop offset="1" style="stop-color:#FF52E5"></stop>				</linearGradient>				<path class="st68" d="M1215.1,3082.5c2,7.5,5.2,17.9,9.5,27.3c10.5,22.8,9.4,56.4-12.1,55.6c-1,0-1.9-0.1-2.8-0.2     c13.2-13.7,8.7-40,8.7-40L1215.1,3082.5z"></path>			</g>			<g transform="matrix(0.0282208,0.371267,-0.371267,0.0282208,1241.38,440.126)">									<linearGradient id="SVGID_60_" gradientUnits="userSpaceOnUse" x1="692.5617" y1="4806.5801" x2="692.9653" y2="4806.5801" gradientTransform="matrix(16.0556 -31.1635 -31.1635 -16.0556 138591.9688 101202.9766)">					<stop offset="0" style="stop-color:#2F27FE"></stop>					<stop offset="1" style="stop-color:#2F27FE;stop-opacity:0"></stop>				</linearGradient>				<path class="st69" d="M-68.3,2409.8c2,7.5,5.2,17.9,9.5,27.3c10.5,22.8,9.4,56.4-12.1,55.6c-1,0-1.9-0.1-2.8-0.2     c13.2-13.7,8.7-40,8.7-40L-68.3,2409.8z"></path>			</g>			<g transform="matrix(-0.359279,0.0977452,-0.0977452,-0.359279,1918.25,995.56)">									<linearGradient id="SVGID_61_" gradientUnits="userSpaceOnUse" x1="6162.9995" y1="2130.2695" x2="6163.4033" y2="2130.2695" gradientTransform="matrix(-27.5756 -21.6456 -21.6456 27.5756 219550.6406 77507.125)">					<stop offset="0" style="stop-color:#2F27FE"></stop>					<stop offset="1" style="stop-color:#2F27FE;stop-opacity:0"></stop>				</linearGradient>				<path class="st70" d="M3501.5,2810.9c2,7.5,5.2,17.9,9.5,27.3c10.5,22.8,9.4,56.4-12.1,55.6c-1,0-1.9-0.1-2.8-0.2     c13.2-13.7,8.7-40,8.7-40L3501.5,2810.9z"></path>			</g>			<g transform="matrix(1,0,0,1,31.1992,47.3858)">									<linearGradient id="SVGID_62_" gradientUnits="userSpaceOnUse" x1="-541.4502" y1="791.262" x2="-541.0466" y2="791.262" gradientTransform="matrix(75.2831 424.278 424.278 -75.2831 -294285.875 289365.9063)">					<stop offset="0" style="stop-color:#5EFCE8"></stop>					<stop offset="1" style="stop-color:#736EFE"></stop>				</linearGradient>				<path class="st71" d="M770.2,230.6c-2.5-4.1-2.2-68.3-64.6-80.5c-62.4-12.2-80.4,22.7-100.2-1s28.3-50,106.1-11.3     C777.4,170.4,772.7,234.7,770.2,230.6z"></path>			</g>			<g transform="matrix(1,0,0,1,31.1992,47.3858)">									<linearGradient id="SVGID_63_" gradientUnits="userSpaceOnUse" x1="-541.999" y1="791.2126" x2="-541.5953" y2="791.2126" gradientTransform="matrix(158.198 322.468 322.468 -158.198 -168752.1094 300037)">					<stop offset="0" style="stop-color:#F6D242"></stop>					<stop offset="1" style="stop-color:#FF52E5"></stop>				</linearGradient>				<path class="st72" d="M605.3,148.9c1.1-19,45.4-32.2,110.5,0.2c28.3,14.1,43.5,33.9,51.6,51.7c3.3,10.6,4.1,19.7,4,25     c-1.4-6.3-3.5-13.9-7-21.6c-6.4-20.6-21.3-46.7-58.7-54c-62.4-12.2-80.4,22.7-100.2-1C605.4,149,605.4,148.9,605.3,148.9z"></path>			</g>			<g transform="matrix(1,0,0,1,31.1992,47.3858)">				<circle class="st73" cx="344.6" cy="352.9" r="1.8"></circle>			</g>			<g transform="matrix(1,0,0,1,125.54,121.586)">				<circle class="st73" cx="288.3" cy="308.7" r="1.8"></circle>			</g>			<g transform="matrix(1,0,0,1,241.08,51.0959)">				<circle class="st73" cx="219.4" cy="350.7" r="1.8"></circle>			</g>			<g transform="matrix(1,0,0,1,184.37,-88.8246)">				<circle class="st73" cx="253.2" cy="434.2" r="1.8"></circle>			</g>			<g transform="matrix(1,0,0,1,273.41,-135.465)">				<circle class="st73" cx="200.1" cy="462" r="1.8"></circle>			</g>			<g transform="matrix(1,0,0,1,114.41,-165.675)">				<circle class="st73" cx="295" cy="480" r="1.8"></circle>			</g>			<g transform="matrix(1,0,0,1,1074.17,-465.555)">				<circle class="st73" cx="-277.4" cy="658.8" r="1.8"></circle>			</g>			<g transform="matrix(1,0,0,1,1196.07,-540.285)">				<circle class="st73" cx="-350.1" cy="703.4" r="1.8"></circle>			</g>			<g transform="matrix(1,0,0,1,1042.37,-658.475)">				<circle class="st73" cx="-258.4" cy="773.9" r="1.8"></circle>			</g>			<g transform="matrix(1,0,0,1,1117.63,-751.756)">				<circle class="st73" cx="-303.3" cy="829.5" r="1.8"></circle>			</g>			<g transform="matrix(1,0,0,1,868.53,-715.716)">				<circle class="st73" cx="-154.8" cy="808" r="1.8"></circle>			</g>			<g transform="matrix(1,0,0,1,729.669,-598.055)">				<circle class="st73" cx="-71.9" cy="737.9" r="1.8"></circle>			</g>			<g transform="matrix(1,0,0,1,769.419,-553.535)">				<circle class="st73" cx="-95.7" cy="711.3" r="1.8"></circle>			</g>			<g transform="matrix(1,0,0,1,1117.63,-325.528)">				<circle class="st73" cx="-303.3" cy="575.3" r="1.8"></circle>			</g>			<g transform="matrix(1,0,0,1,1188.52,-322.815)">				<circle class="st73" cx="-345.6" cy="573.7" r="1.8"></circle>			</g>			<g transform="matrix(1,0,0,1,1146.8,-356.396)">				<circle class="st73" cx="-320.7" cy="593.7" r="1.8"></circle>			</g>			<g transform="matrix(1,0,0,1,1219.73,-396.082)">				<circle class="st73" cx="-364.2" cy="617.4" r="1.8"></circle>			</g>			<g transform="matrix(1,0,0,1,1160.03,-442.892)">				<circle class="st73" cx="-328.6" cy="645.3" r="1.8"></circle>			</g>			<g transform="matrix(1,0,0,1,1008.07,-14.2595)">				<circle class="st73" cx="-238" cy="389.7" r="1.8"></circle>			</g>			<g transform="matrix(1,0,0,1,974.148,-58.6948)">				<circle class="st73" cx="-217.7" cy="416.2" r="1.8"></circle>			</g>			<g transform="matrix(1,0,0,1,914.449,-53.946)">				<circle class="st73" cx="-182.1" cy="413.4" r="1.8"></circle>			</g>			<g transform="matrix(0.393653,0,0,0.393653,1524.87,556.382)">				<circle class="st73" cx="-2013.4" cy="-500.3" r="1.8"></circle>			</g>			<g transform="matrix(0.393653,0,0,0.393653,1482.65,532.424)">				<circle class="st73" cx="-1949.4" cy="-464" r="1.8"></circle>			</g>			<g transform="matrix(0.393653,0,0,0.393653,1537.04,573.216)">				<circle class="st73" cx="-2031.8" cy="-525.8" r="1.8"></circle>			</g>			<g transform="matrix(0.393653,0,0,0.393653,1483.17,573.087)">				<circle class="st73" cx="-1950.2" cy="-525.6" r="1.8"></circle>			</g>			<g transform="matrix(0.393653,0,0,0.393653,1544.29,615.562)">				<circle class="st73" cx="-2042.8" cy="-590" r="1.8"></circle>			</g>			<g transform="matrix(0.393653,0,0,0.393653,1602.56,583.835)">				<circle class="st73" cx="-2131" cy="-541.9" r="1.8"></circle>			</g>			<g transform="matrix(0.393653,0,0,0.393653,1582.54,599.489)">				<circle class="st73" cx="-2100.7" cy="-565.6" r="1.8"></circle>			</g>			<g transform="matrix(0.393653,0,0,0.393653,1551.08,537.848)">				<circle class="st73" cx="-2053.1" cy="-472.2" r="1.8"></circle>			</g>			<g transform="matrix(0.393653,0,0,0.393653,1602.56,17.0631)">				<circle class="st73" cx="-2131" cy="316.7" r="1.8"></circle>			</g>			<g transform="matrix(0.393653,0,0,0.393653,1549.47,-79.8015)">				<circle class="st73" cx="-2050.6" cy="463.4" r="1.8"></circle>			</g>			<g transform="matrix(0.393653,0,0,0.393653,1635.72,-11.1675)">				<circle class="st73" cx="-2181.3" cy="359.5" r="1.8"></circle>			</g>			<g transform="matrix(0.393653,0,0,0.393653,1818.05,-74.6216)">				<circle class="st73" cx="-2457.5" cy="455.6" r="1.8"></circle>			</g>			<g transform="matrix(0.393653,0,0,0.393653,1811.06,45.5527)">				<circle class="st73" cx="-2446.9" cy="273.5" r="1.8"></circle>			</g>			<g transform="matrix(1,0,0,1,958.884,13.2158)">				<circle class="st73" cx="-208.6" cy="373.3" r="1.8"></circle>			</g>			<g transform="matrix(1,0,0,1,859.498,-56.3204)">				<circle class="st73" cx="-149.4" cy="414.8" r="1.8"></circle>			</g>			<g transform="matrix(1,0,0,1,899.185,17.6254)">				<circle class="st73" cx="-173" cy="370.7" r="1.8"></circle>			</g>			<g transform="matrix(1,0,0,1,762.148,310.005)">				<circle class="st73" cx="-91.3" cy="196.3" r="1.8"></circle>			</g>			<g transform="matrix(1,0,0,1,803.395,275.542)">				<circle class="st73" cx="-115.9" cy="216.9" r="1.8"></circle>			</g>			<g transform="matrix(1,0,0,1,803.123,323.302)">				<circle class="st73" cx="-115.8" cy="188.4" r="1.8"></circle>			</g>			<g transform="matrix(1,0,0,1,873.948,331.443)">				<circle class="st73" cx="-158" cy="183.5" r="1.8"></circle>			</g>			<g transform="matrix(1,0,0,1,759.163,282.598)">				<circle class="st73" cx="-89.5" cy="212.7" r="1.8"></circle>			</g>			<g transform="matrix(1,0,0,1,34.3792,-123.805)">				<circle class="st73" cx="342.7" cy="455" r="1.8"></circle>			</g>			<g transform="matrix(1,0,0,1,-168.081,-124.335)">				<circle class="st73" cx="463.4" cy="455.3" r="1.8"></circle>			</g>			<g transform="matrix(1,0,0,1,-198.822,-29.9944)">				<circle class="st73" cx="481.8" cy="399.1" r="1.8"></circle>			</g>			<g transform="matrix(1,0,0,1,-34.521,24.5958)">				<circle class="st73" cx="383.8" cy="366.5" r="1.8"></circle>			</g>			<g transform="matrix(1,0,0,1,804.697,-432.027)">				<circle class="st73" cx="-116.7" cy="638.8" r="1.8"></circle>			</g>			<g transform="matrix(1,0,0,1,942.497,-427.787)">				<circle class="st73" cx="-198.9" cy="636.3" r="1.8"></circle>			</g>			<g transform="matrix(1,0,0,1,968.467,-620.177)">				<circle class="st73" cx="-214.4" cy="751" r="1.8"></circle>			</g>			<g transform="matrix(1,0,0,1,1193.19,-481.317)">				<circle class="st73" cx="-348.4" cy="668.2" r="1.8"></circle>			</g>			<g transform="matrix(1,0,0,1,934.017,-648.267)">				<circle class="st73" cx="-193.8" cy="767.8" r="1.8"></circle>			</g>		</g>		<rect x="-43.2" y="-25.1" class="st1" width="944.5" height="629.7"></rect>	</g></g></svg>